<svg width="75" height="68" viewBox="0 0 75 68" fill="none" xmlns="http://www.w3.org/2000/svg">
<g clip-path="url(#clip0)">
<path d="M62.4491 64.8172C62.0862 62.0776 58.747 61.767 56.8056 61.9555C54.7387 54.8991 61.9483 44.3819 62.3724 41.8906C62.8282 39.2145 60.2621 23.6419 59.9911 15.7568C59.7125 7.6621 46.7458 -1.274 44.5809 0.150547C42.4357 2.3013 47.6707 5.20414 44.915 7.69285C42.2532 10.0974 41.559 11.7133 39.5824 14.4348C34.5186 21.4052 48.2412 21.4923 48.2412 21.4923C48.2412 21.4923 37.5019 28.709 35.1123 32.3461C32.9116 35.6958 31.9889 39.4432 29.3334 42.6021C23.2813 49.8013 24.6452 62.3535 24.6452 62.3535C24.6452 62.3535 13.1806 58.9512 19.4901 47.0841C24.293 38.0509 26.6589 24.7204 15.8532 28.1489C11.6728 29.4754 16.788 32.2656 17.6707 33.1594C20.6242 36.1481 18.1275 41.1761 16.3477 44.0833C11.5815 51.8687 9.85121 60.0257 19.8831 65.0557C24.3406 67.2904 30.3604 67.8433 36.4191 67.9244L51.8362 67.9646C56.9153 68.1937 62.6602 67.3327 62.4491 64.8172Z" fill="white"/>
</g>
<defs>
<clipPath id="clip0">
<rect width="75" height="68" fill="white"/>
</clipPath>
</defs>
</svg>
